<svg xmlns="http://www.w3.org/2000/svg" viewBox="0 0 1940.2 1673.04"><defs><style>.cls-1{fill:#1c487d;}.cls-2{fill:#00b1c3;}.cls-3{fill:#5094d0;}.cls-4{fill:#58b3e6;}.cls-5{fill:#4382bb;}.cls-6{fill:#fff;}.cls-7{fill:#f1bf5b;}.cls-8{fill:#e99352;}.cls-9{fill:#5ab676;}.cls-10{fill:#4ba364;}.cls-11{fill:#48915f;}.cls-12{fill:#fcd2a0;}.cls-13{fill:#7bbe75;}.cls-14{fill:#f7af7e;}.cls-15{fill:#d2763e;}.cls-16{fill:#fecb50;}.cls-17{fill:#bf6718;}.cls-18{fill:#f6a33e;}.cls-19{fill:#d4831a;}.cls-20{fill:#fff151;}.cls-21{fill:#f69f1d;}</style></defs><title>money</title><g id="Capa_2" data-name="Capa 2"><g id="Capa_1-2" data-name="Capa 1"><path class="cls-1" d="M1843.84,1488.12c0,50.66-254.62,91.74-568.71,91.74s-568.72-41.08-568.72-91.74,254.63-91.73,568.72-91.73S1843.84,1437.46,1843.84,1488.12Z"/><ellipse class="cls-1" cx="590.76" cy="1603.45" rx="484.58" ry="69.58"/><path class="cls-2" d="M1121.4,925.5a39.84,39.84,0,0,1-20.7,52.4L445.4,1262.2A39.87,39.87,0,0,1,393,1241.5L217.39,836.77a39.87,39.87,0,0,1,20.71-52.42L893.41,500.06a39.84,39.84,0,0,1,52.4,20.69Z"/><path class="cls-3" d="M1121.4,925.5a39.84,39.84,0,0,1-20.7,52.4L445.4,1262.2A39.87,39.87,0,0,1,393,1241.5L217.39,836.77a39.87,39.87,0,0,1,20.71-52.42L893.41,500.06a39.84,39.84,0,0,1,52.4,20.69Z"/><path class="cls-4" d="M893.41,500.06l-48.49,21a39.84,39.84,0,0,1,52.41,20.69l175.58,404.73a39.87,39.87,0,0,1-20.69,52.42l48.48-21a39.84,39.84,0,0,0,20.7-52.4L945.81,520.75A39.84,39.84,0,0,0,893.41,500.06Z"/><path class="cls-5" d="M475.16,1202.68a39.85,39.85,0,0,1-52.41-20.7L248.32,779.91l-10.22,4.44a39.87,39.87,0,0,0-20.71,52.42L393,1241.5a39.87,39.87,0,0,0,52.42,20.7l655.3-284.3a39.84,39.84,0,0,0,20.7-52.4l-1.16-2.67Z"/><path class="cls-6" d="M339.66,857l3.25,7.48c3.89,9,1.63,16.1-7.05,19.86s-15.41.57-19.31-8.42l-12.69-29.25c-3.91-9-1.64-16.1,7-19.86s15.42-.58,19.32,8.42l2.38,5.46-8.36,3.63-2.62-6c-1.74-4-4.17-4.77-7-3.55s-3.92,3.53-2.18,7.53l13.17,30.38c1.75,4,4.15,4.7,7,3.48s3.95-3.43,2.21-7.45l-3.49-8Z"/><path class="cls-6" d="M372.62,867.66c-1.1-1.23-1.81-2-3.8-6.55L365,852.27c-2.26-5.22-4.87-6.38-8.88-4.65L353.05,849l9.93,22.9-8.84,3.82-24.41-56.25,13.34-5.79c9.17-4,14.95-1.42,18.72,7.26l1.92,4.43c2.5,5.78,2.29,10.35-.84,13.91,5.22-.07,8.52,3.57,11.06,9.44l3.77,8.67c1.18,2.72,2.14,4.71,3.92,6.41Zm-30.56-44,7.49,17.28,3.47-1.49c3.29-1.44,4.67-3.76,2.71-8.26l-2.39-5.54c-1.75-4-3.88-5.19-7-3.83Z"/><path class="cls-6" d="M381.16,825.3,393.29,820l3.49,8-12.14,5.27,7.15,16.47,15.27-6.63,3.48,8-24.1,10.45L362,805.43,386.14,795l3.49,8-15.27,6.62Z"/><path class="cls-6" d="M391.6,792.6l14-6.07c8.85-3.84,15.32-.82,19.21,8.18l12.35,28.45c3.9,9,1.69,15.79-7.15,19.62l-14,6.06Zm12.33,4.2L421.36,837l5-2.16c2.82-1.21,3.88-3.39,2.13-7.42l-12.69-29.24c-1.74-4-4.06-4.74-6.87-3.52Z"/><path class="cls-6" d="M424.39,778.38l8.83-3.84,24.4,56.25-8.83,3.84Z"/><path class="cls-6" d="M437.07,772.88,464.4,761l3.49,8-9.25,4,20.92,48.22-8.84,3.84L449.8,776.9l-9.24,4Z"/><path class="cls-6" d="M521.64,778.1l3.25,7.47c3.9,9,1.63,16.1-7,19.86s-15.41.57-19.3-8.42l-12.7-29.25c-3.91-9-1.64-16.1,7.05-19.87s15.4-.57,19.31,8.43l2.37,5.46-8.36,3.63-2.62-6c-1.73-4-4.16-4.77-7-3.55s-3.92,3.51-2.18,7.53l13.18,30.38c1.75,4,4.14,4.69,6.95,3.47s4-3.42,2.21-7.46l-3.48-8Z"/><path class="cls-6" d="M564.73,784.32l-8.93,3.88-5.94-9.55L539,783.36l2.91,10.87-8.12,3.51-15.4-60.15L531.32,732Zm-27.91-9.08,8.52-3.7-16.61-26.6Z"/><path class="cls-6" d="M587.31,774.53c-1.12-1.24-1.82-2-3.81-6.56l-3.83-8.83c-2.26-5.23-4.87-6.4-8.89-4.65l-3,1.32,9.93,22.9-8.83,3.85L544.41,726.3l13.35-5.79c9.16-4,15-1.42,18.71,7.26l1.92,4.42c2.51,5.78,2.3,10.36-.84,13.92,5.23-.07,8.52,3.56,11.06,9.43l3.77,8.68c1.18,2.73,2.13,4.7,3.92,6.41Zm-30.56-44,7.49,17.29,3.46-1.51c3.29-1.43,4.67-3.75,2.72-8.25l-2.4-5.55c-1.75-4-3.88-5.19-7-3.82Z"/><path class="cls-6" d="M576.71,712.29l14-6.08c8.84-3.82,15.31-.8,19.21,8.2l12.34,28.44c3.91,9,1.69,15.79-7.15,19.62l-14,6.07ZM589,716.5l17.43,40.17,5-2.16c2.81-1.22,3.87-3.4,2.13-7.42l-12.7-29.25c-1.73-4-4-4.73-6.86-3.52Z"/><rect class="cls-6" x="758.83" y="882.26" width="244.75" height="11.26" transform="translate(-280.58 424.07) rotate(-23.45)"/><rect class="cls-6" x="898.55" y="909.54" width="122.38" height="11.26" transform="translate(-284.94 457.56) rotate(-23.45)"/><polygon class="cls-6" points="734.65 957.59 595.24 1018.09 590.76 1007.76 730.16 947.28 734.65 957.59"/><rect class="cls-6" x="551.85" y="867.11" width="436.53" height="11.26" transform="translate(-283.72 378.59) rotate(-23.45)"/><path class="cls-6" d="M718.93,736.74a58.17,58.17,0,1,1,29.39-28.55A57.81,57.81,0,0,1,718.93,736.74Zm-44-101.45a52.53,52.53,0,0,0-27.27,69.07,52.48,52.48,0,1,0,60.83-71.82A51.84,51.84,0,0,0,674.91,635.29Z"/><path class="cls-6" d="M718.91,736.74c-11.73,5.09-29.5-19.06-41-45.55s-17-56-5.27-61.05,29.49,19.07,41,45.56S730.63,731.66,718.91,736.74Zm-44-101.43c-5.3,2.3-4.75,23.82,8.19,53.64s28.27,44.93,33.57,42.63,4.75-23.81-8.18-53.64S680.2,633,674.9,635.31Z"/><path class="cls-6" d="M701.82,697.36c-18.44,8-54.57,20.22-59.34,9.21s28.83-29.05,47.26-37,54.57-20.21,59.34-9.21S720.25,689.36,701.82,697.36ZM692,674.69c-31.77,13.78-45.48,27-44.35,29.63s20.18,1.65,51.93-12.13,45.48-27,44.34-29.63S723.75,660.91,692,674.69Z"/><path class="cls-6" d="M684.52,657.45a53.74,53.74,0,0,1-37.93,1.81l1.73-5.35a48,48,0,0,0,58.3-25.29l5.09,2.39A53.68,53.68,0,0,1,684.52,657.45Z"/><path class="cls-6" d="M681.44,737.05l-5.26-2a53.73,53.73,0,0,1,70.67-30.66l-2.15,5.21a48.09,48.09,0,0,0-63.26,27.45Z"/><path class="cls-7" d="M527,1003.08A12.06,12.06,0,0,1,520.7,1019l-91.15,39.55a12.07,12.07,0,0,1-15.88-6.27L379.5,973.45a12.07,12.07,0,0,1,6.27-15.88L476.92,918a12.08,12.08,0,0,1,15.88,6.27Z"/><rect class="cls-8" x="417.03" y="947.74" width="5.63" height="110.02" transform="translate(-363.94 249.45) rotate(-23.42)"/><polygon class="cls-8" points="513.16 1022.24 508 1024.47 464.21 923.55 469.37 921.3 513.16 1022.24"/><polygon class="cls-8" points="496.02 931.87 382.82 980.98 380.58 975.8 493.78 926.71 496.02 931.87"/><rect class="cls-8" x="406.47" y="1019.87" width="123.39" height="5.62" transform="translate(-368.36 270.83) rotate(-23.45)"/><path class="cls-8" d="M484.08,1000.44l-43,18.67-18.66-43,43-18.66ZM444,1011.7l32.7-14.18L462.5,964.81,429.79,979Z"/><polygon class="cls-8" points="424.97 980.11 403.78 970.91 406.03 965.75 427.21 974.97 424.97 980.11"/><rect class="cls-8" x="427.09" y="1023.47" width="23.1" height="5.63" transform="matrix(0.34, -0.94, 0.94, 0.34, -675.34, 1094.93)"/><rect class="cls-8" x="456.51" y="946.97" width="24.68" height="5.63" transform="translate(-588.99 1003.6) rotate(-66.64)"/><polygon class="cls-8" points="502.66 1009.96 479.43 1001.63 481.32 996.33 504.56 1004.65 502.66 1009.96"/><path class="cls-9" d="M1301.07,359.71c16.85.4,30.6-9.89,55.58-28.7,20.83-15.69,61-50.48,89.89-36.36,47.29,23.14-18.61,116.13-33.52,147.14-24.44,50.82-62,112.37-68.08,166.81-8,70.95,56.54,95.26,104.4,131.32A694.37,694.37,0,0,1,1685,1059.38c33.36,92.39,77.38,270.72,18.34,358.58,14,35.5,28.9,40,43.59,78.22-11.54,25.16-44.14,17.41-66.57,5.59-45.81-24.12-88.3-62-140.55-39.11-23.69,10.38-64.26,19.3-86.53,31.66-26.23,14.54-59.65,21-89.61,27.12-90.18,18.38-173.39,8-260.76-14.19-59.45-15.06-131.65-48.53-193.63-45.52-68.8,3.33-132.82-13.78-194.87,14.9-23.16,10.7-45.21,37.56-55.87,12.1-10-23.93,15.18-59.75,25.15-79.14,30-58.53,50.73-52.7,54.22-119.14,3.63-69.17-7.52-136.71.83-204.8,17.54-143.18,130-251.57,207.8-361.56,39.69-56.13,82.68-69.79,51.22-136C964,517,920.85,413.49,872,351.56c-9.39-11.92,93.48-68.29,99.34-70.27,96.22-32.68,201.58,12.43,283.88,60.59C1275.52,353.75,1289.09,359.44,1301.07,359.71Z"/><path class="cls-10" d="M1136,663.11c3.74-6.73,12.78-39.75,18-42.42a56.79,56.79,0,0,0-18.56,15.36c-13.58,17.36-47.62,65-68.17,24.38-17.36-34.32-6.29-82.27.94-118.32,4.11-20.48,28.75-77.86,8.93-94.19-21.32-17.56-57.31-6.26-82.62-10.9-44.48-8.18-81.68-55.15-50.75-98.29,34.94-48.75,97.1-50.6,150.73-36.14,33.86,9.14,64.59,30.49,98.45,37.83,18.28,4,33.83.6,47.13-7.25-79.83-44.64-178.28-82.57-268.66-51.88-5.86,2-108.73,58.35-99.34,70.27C920.85,413.49,964,517,997.74,588.12c31.46,66.18-11.53,79.84-51.22,136-77.81,110-190.26,218.38-207.8,361.56-8.35,68.09,2.8,135.63-.83,204.8-3.49,66.44-24.19,60.61-54.22,119.14-10,19.39-35.17,55.21-25.15,79.14,10.66,25.46,32.71-1.4,55.87-12.1,62.05-28.68,126.07-11.57,194.87-14.9,62-3,134.18,30.46,193.63,45.52,87.37,22.15,170.58,32.57,260.76,14.19,30-6.12,63.38-12.58,89.61-27.12,22.27-12.36,62.84-21.28,86.53-31.66,52.25-22.91,94.74,15,140.55,39.11,22.43,11.82,55,19.57,66.57-5.59-14.69-38.25-29.59-42.72-43.59-78.22,59-87.86,15-266.19-18.34-358.58A694.72,694.72,0,0,0,1520,801.17c-11.86,48.28,34.14,109.79,58.23,147.29,61.25,95.34,154.54,280.61,92.84,394.13-16,29.45-19.93,46.87-46.49,47.81-12.3,6.44-28.11,8-46.22,4.89-49.81-8.68-100.62-41.51-152.36-26.24-66.56,19.63-115.33,75-184.87,89.75-63.7,13.47-132.73,7.79-191-22.75-22.65-11.87-47.28-25.6-60.52-48.55-12.93-22.45-18.06-49.35-32.93-70.63-17.6-25.19-46.12-25.31-69.24-42.46-16.45-12.21-29.13-26-35.71-45.82-16.44-49.56-8.56-106.43,3.47-156.15,22.61-93.56,72.48-178.3,138.35-248C993.56,824.47,1110.78,708.36,1136,663.11Z"/><path class="cls-11" d="M1279.1,1045.16c-29.79-30.82-76.56-34.21-107.51-36.45-13.61-1-23.53-6.64-27.21-15.52-3.92-9.47-.52-21.79,9.12-32.92,8.51-9.82,24.34-15.66,43.44-16.06,21.06-.43,36.06,6,39.35,9a24.31,24.31,0,0,0,42.34-23.88c-12.65-23.46-45.24-30.48-61.17-32.54v-21.9a24.3,24.3,0,1,0-48.6,0V899c-21.18,4.85-39.44,14.88-52.1,29.51-21.94,25.33-28.4,56.49-17.29,83.32,10.82,26.11,36.47,43.09,68.62,45.41,25,1.8,59.19,4.27,76.05,21.74,8.95,9.25,13.48,21.84,12.77,35.43a55.06,55.06,0,0,1-16.56,36.38c-18.58,17.93-48.64,24.35-74.8,16-11.65-3.71-31.92-13.71-36.62-38.83a24.3,24.3,0,0,0-47.78,8.94c6.83,36.48,32.21,64.26,69.61,76.21a124.76,124.76,0,0,0,18.1,4.27v22.31a24.3,24.3,0,1,0,48.6,0v-23.91c21.22-4.81,41-14.91,56.63-30a102.79,102.79,0,0,0,31.36-68.82C1306.87,1089.7,1297.51,1064.21,1279.1,1045.16Z"/><path class="cls-12" d="M1295.91,1045.16c-29.79-30.82-76.55-34.21-107.51-36.45-13.61-1-23.53-6.64-27.2-15.52-3.93-9.47-.52-21.79,9.11-32.92,8.51-9.82,24.33-15.66,43.44-16.06,21.06-.43,36.06,6,39.35,9a24.31,24.31,0,0,0,42.33-23.88c-12.64-23.47-45.23-30.48-61.16-32.54v-21.9a24.3,24.3,0,0,0-48.6,0V899c-21.19,4.85-39.44,14.88-52.11,29.51-21.93,25.33-28.39,56.49-17.28,83.32,10.82,26.11,36.47,43.09,68.62,45.41,25,1.8,59.19,4.27,76,21.74,9,9.25,13.48,21.84,12.76,35.43a55,55,0,0,1-16.55,36.37c-18.57,17.94-48.64,24.35-74.8,16-11.66-3.71-31.91-13.71-36.62-38.83a24.3,24.3,0,0,0-47.78,8.94c6.84,36.48,32.21,64.26,69.61,76.21a125.07,125.07,0,0,0,18.1,4.27v22.31a24.3,24.3,0,0,0,48.6,0v-23.91c21.23-4.81,41-14.91,56.63-30a102.73,102.73,0,0,0,31.35-68.83C1323.68,1089.68,1314.32,1064.21,1295.91,1045.16Z"/><path class="cls-13" d="M1417.57,1077c7.29,26.28,13.23,57.94.64,84-11,22.84-34,36.86-47.08,58.55-22.4,37.12,1.32,100.56,48.75,93.6,21.41-3.16,41.64-16,62.44-23.89,21.16-8.07,45.06-7.53,66.25-14.78,83.19-28.43,50-154,24.16-211.5-19.6-43.67-49.64-101.07-97.45-118.47C1383.44,911.15,1403.8,1027.45,1417.57,1077Z"/><path class="cls-10" d="M1383.32,500.61s35.93-70.22,44.75-86.09c0,0,16.28-21.43-6.2-21.72-23.1,13.59-41.91,24.36-58.8,46.68-14.25,18.82-27,39.75-35.62,62.17-7.44,19.24-7.83,52-28,64.17-45.81,27.62-39.91-103.68-69.23-42-9,18.88.66,50.18-8.86,67.22-16,28.55-27-1.65-30.8-23.12-4.41-25-1.11-145.86-51.51-106.8-23.81,18.47-10.21,45.34-7.75,69.34,3.15,30.73-9.06,60.61-5.08,91.16,7.25,55.71,46.64,64.52,95,62.09,40-2,103.82-7.17,118-50.29,14.47-44.12,17.42-83.47,41.53-127.64"/><path class="cls-12" d="M1383.32,610c0,13.52-6.89,24.49-15.37,24.49H974c-8.49,0-15.37-11-15.37-24.49h0c0-13.53,6.88-24.5,15.37-24.5h394c8.48,0,15.37,11,15.37,24.5Z"/><path class="cls-14" d="M1383.32,658.94c0,13.53-6.89,24.49-15.37,24.49H974c-8.49,0-15.37-11-15.37-24.49h0c0-13.52,6.88-24.49,15.37-24.49h394c8.48,0,15.37,11,15.37,24.49Z"/><path class="cls-15" d="M1035.76,1361.9c0,133.4-108.15,241.55-241.56,241.55S552.65,1495.3,552.65,1361.9,660.8,1120.34,794.2,1120.34,1035.76,1228.49,1035.76,1361.9Z"/><path class="cls-16" d="M1011.23,1361.9c0,133.4-108.15,241.55-241.56,241.55S528.12,1495.3,528.12,1361.9s108.15-241.56,241.55-241.56S1011.23,1228.49,1011.23,1361.9Z"/><path class="cls-17" d="M954.11,1361.9c0,101.85-82.57,184.44-184.44,184.44s-184.43-82.59-184.43-184.44,82.57-184.44,184.43-184.44A184.44,184.44,0,0,1,954.11,1361.9Z"/><path class="cls-18" d="M954.11,1361.9a174,174,0,1,1-174-174A174,174,0,0,1,954.11,1361.9Z"/><path class="cls-19" d="M826.62,1353.76c-20-20.75-51.54-23-72.39-24.53-9.16-.67-15.84-4.48-18.32-10.46-2.64-6.38-.35-14.68,6.14-22.16,5.73-6.61,16.39-10.55,29.25-10.81,14.18-.3,24.28,4,26.5,6a16.36,16.36,0,0,0,28.5-16.07c-8.51-15.8-30.46-20.52-41.18-21.9V1239.1a16.37,16.37,0,0,0-32.73,0v16.2c-14.26,3.28-26.55,10-35.08,19.88-14.76,17.07-19.11,38-11.63,56.11,7.28,17.58,24.55,29,46.19,30.57,16.83,1.22,39.85,2.88,51.21,14.64a31.49,31.49,0,0,1,8.6,23.86,37.17,37.17,0,0,1-11.15,24.5c-12.51,12.06-32.75,16.39-50.37,10.76-7.84-2.51-21.48-9.24-24.65-26.16a16.37,16.37,0,0,0-32.17,6c4.6,24.56,21.68,43.26,46.87,51.3a83.82,83.82,0,0,0,12.18,2.89v15a16.37,16.37,0,0,0,32.73,0v-16.1a80.29,80.29,0,0,0,38.13-20.18,69.18,69.18,0,0,0,21.11-46.35A63.85,63.85,0,0,0,826.62,1353.76Z"/><path class="cls-16" d="M837.94,1353.76c-20.06-20.75-51.55-23-72.39-24.55-9.16-.66-15.84-4.46-18.32-10.44-2.64-6.38-.34-14.68,6.14-22.16,5.73-6.61,16.39-10.55,29.25-10.81,14.18-.3,24.28,4,26.49,6a16.36,16.36,0,0,0,28.5-16.07c-8.5-15.8-30.45-20.52-41.17-21.9V1239.1a16.37,16.37,0,0,0-32.73,0v16.2c-14.26,3.28-26.55,10-35.08,19.88-14.77,17.07-19.12,38-11.63,56.11,7.28,17.58,24.55,29,46.2,30.57,16.81,1.22,39.84,2.88,51.2,14.63a31.44,31.44,0,0,1,8.59,23.87,37.07,37.07,0,0,1-11.14,24.5c-12.51,12.06-32.75,16.38-50.37,10.76-7.85-2.51-21.49-9.24-24.66-26.16a16.36,16.36,0,1,0-32.16,6c4.6,24.56,21.68,43.25,46.86,51.3a84.26,84.26,0,0,0,12.19,2.89v15a16.37,16.37,0,0,0,32.73,0v-16.1a80.29,80.29,0,0,0,38.13-20.18,69.22,69.22,0,0,0,21.11-46.35A63.85,63.85,0,0,0,837.94,1353.76Z"/><path class="cls-20" d="M591.45,1409.48l-50.21,31a240.12,240.12,0,0,1-13.13-78.59c0-2.06,0-4.07.09-6.07l62.51-38.67a185.62,185.62,0,0,0,.74,92.34Z"/><path class="cls-20" d="M942.1,1192.78l-50.17,31a183.8,183.8,0,0,0-82.24-42l62.56-38.63A240.9,240.9,0,0,1,942.1,1192.78Z"/><path class="cls-17" d="M621.52,1471.84l-48.67,30.06a237.55,237.55,0,0,1-20.2-33.89l48.85-30.21A187.92,187.92,0,0,0,621.52,1471.84Z"/><path class="cls-17" d="M983,1248.46l-48.67,30.15a182.43,182.43,0,0,0-21.55-33.14l48.85-30.2A239.73,239.73,0,0,1,983,1248.46Z"/><path class="cls-21" d="M729.7,1542l-62.6,38.66a239.4,239.4,0,0,1-58.81-39l51.28-31.7A184.08,184.08,0,0,0,729.7,1542Z"/><path class="cls-21" d="M1011.24,1361.88c0,2.07,0,4.12-.09,6.13l-62.93,38.9a174.86,174.86,0,0,0,2.9-77.2l51.52-31.83A240.83,240.83,0,0,1,1011.24,1361.88Z"/><path class="cls-15" d="M658.48,1381.81c0,133.41-108.15,241.56-241.55,241.56s-241.56-108.15-241.56-241.56,108.15-241.55,241.56-241.55S658.48,1248.41,658.48,1381.81Z"/><path class="cls-16" d="M634,1381.81c0,133.41-108.15,241.56-241.56,241.56s-241.55-108.15-241.55-241.56S259,1140.26,392.39,1140.26,634,1248.41,634,1381.81Z"/><path class="cls-17" d="M576.83,1381.81c0,101.86-82.58,184.44-184.44,184.44S208,1483.67,208,1381.81s82.58-184.43,184.43-184.43S576.83,1280,576.83,1381.81Z"/><path class="cls-18" d="M576.83,1381.81a174,174,0,1,1-174-174A174,174,0,0,1,576.83,1381.81Z"/><path class="cls-19" d="M449.34,1373.68c-20-20.76-51.54-23-72.38-24.54-9.17-.66-15.85-4.47-18.32-10.45-2.64-6.39-.35-14.67,6.14-22.16,5.72-6.61,16.38-10.55,29.24-10.82,14.19-.29,24.28,4,26.5,6a16.36,16.36,0,0,0,28.5-16.07c-8.51-15.8-30.46-20.52-41.18-21.91V1259a16.37,16.37,0,0,0-32.73,0v16.21c-14.25,3.28-26.55,10-35.07,19.87-14.77,17.06-19.12,38-11.64,56.11,7.28,17.58,24.55,29,46.2,30.58,16.82,1.2,39.85,2.87,51.2,14.63a31.49,31.49,0,0,1,8.6,23.85,37.09,37.09,0,0,1-11.15,24.5c-12.51,12.07-32.75,16.4-50.36,10.77-7.85-2.5-21.49-9.24-24.66-26.15a16.36,16.36,0,1,0-32.16,6c4.59,24.56,21.68,43.26,46.86,51.3a84.48,84.48,0,0,0,12.18,2.9v15a16.37,16.37,0,0,0,32.73,0v-16.09A80.49,80.49,0,0,0,446,1468.33,69.2,69.2,0,0,0,467.08,1422,63.86,63.86,0,0,0,449.34,1373.68Z"/><path class="cls-16" d="M460.66,1373.68c-20.05-20.76-51.54-23-72.38-24.54-9.17-.66-15.85-4.47-18.33-10.45-2.64-6.39-.34-14.67,6.14-22.16,5.73-6.62,16.39-10.55,29.25-10.82,14.18-.29,24.28,4,26.5,6a16.36,16.36,0,0,0,28.5-16.07c-8.51-15.8-30.46-20.52-41.18-21.91V1259a16.36,16.36,0,0,0-32.72,0v16.21c-14.26,3.28-26.56,10-35.09,19.87-14.76,17.06-19.12,38-11.63,56.11,7.28,17.58,24.55,29,46.19,30.56,16.82,1.22,39.86,2.89,51.21,14.65a31.41,31.41,0,0,1,8.59,23.85,37,37,0,0,1-11.14,24.5c-12.51,12.07-32.75,16.4-50.36,10.77-7.85-2.5-21.5-9.24-24.66-26.15a16.36,16.36,0,1,0-32.17,6c4.6,24.55,21.68,43.25,46.87,51.3a85.31,85.31,0,0,0,12.19,2.9v15a16.36,16.36,0,1,0,32.72,0v-16.09a80.42,80.42,0,0,0,38.13-20.2A69.15,69.15,0,0,0,478.4,1422,63.86,63.86,0,0,0,460.66,1373.68Z"/><path class="cls-20" d="M214.18,1429.39l-50.22,31a240.12,240.12,0,0,1-13.13-78.59c0-2,0-4.07.09-6.08l62.51-38.66a185.43,185.43,0,0,0,.75,92.33Z"/><path class="cls-20" d="M564.82,1212.7l-50.16,31a184,184,0,0,0-82.25-42L495,1163.1A240.87,240.87,0,0,1,564.82,1212.7Z"/><path class="cls-17" d="M244.24,1491.77l-48.67,30.06a238.21,238.21,0,0,1-20.2-33.9l48.86-30.21A187.72,187.72,0,0,0,244.24,1491.77Z"/><path class="cls-17" d="M605.68,1268.38,557,1298.54a181.82,181.82,0,0,0-21.55-33.15l48.85-30.21A239.84,239.84,0,0,1,605.68,1268.38Z"/><path class="cls-21" d="M352.43,1561.89l-62.61,38.67a240.19,240.19,0,0,1-58.81-39l51.29-31.7A184.09,184.09,0,0,0,352.43,1561.89Z"/><path class="cls-21" d="M634,1381.8c0,2.06,0,4.12-.09,6.12l-62.93,38.9a174.77,174.77,0,0,0,2.9-77.18l51.52-31.84A240.83,240.83,0,0,1,634,1381.8Z"/><path class="cls-6" d="M1390,77.92a14.65,14.65,0,0,1-14.64,14.64h-298.1a14.64,14.64,0,0,1-14.64-14.64h0a14.64,14.64,0,0,1,14.64-14.63h298.1A14.64,14.64,0,0,1,1390,77.92Z"/><path class="cls-6" d="M93.15,1128.59A14.63,14.63,0,0,1,107.79,1114H249.52a14.64,14.64,0,0,1,14.63,14.63h0a14.64,14.64,0,0,1-14.63,14.64H107.79a14.63,14.63,0,0,1-14.64-14.64Z"/><path class="cls-6" d="M0,1128.59A14.64,14.64,0,0,1,14.64,1114H46.58a14.63,14.63,0,0,1,14.63,14.63h0a14.63,14.63,0,0,1-14.63,14.64H14.64A14.64,14.64,0,0,1,0,1128.59Z"/><path class="cls-6" d="M1847.05,1124.61a14.63,14.63,0,0,1-14.64,14.63H1690.69a14.63,14.63,0,0,1-14.64-14.63h0a14.63,14.63,0,0,1,14.64-14.64h141.72a14.63,14.63,0,0,1,14.64,14.64Z"/><path class="cls-6" d="M1940.2,1124.61a14.63,14.63,0,0,1-14.64,14.63h-31.94a14.63,14.63,0,0,1-14.64-14.63h0a14.64,14.64,0,0,1,14.64-14.64h31.94a14.64,14.64,0,0,1,14.64,14.64Z"/><path class="cls-6" d="M1670.05,645.25a14.63,14.63,0,0,1-14.63,14.64H1526.69a14.63,14.63,0,0,1-14.64-14.64h0a14.63,14.63,0,0,1,14.64-14.63h128.73a14.62,14.62,0,0,1,14.63,14.63Z"/><path class="cls-6" d="M1763.21,645.25a14.63,14.63,0,0,1-14.64,14.64h-31.94A14.63,14.63,0,0,1,1702,645.25h0a14.63,14.63,0,0,1,14.63-14.63h31.94a14.63,14.63,0,0,1,14.64,14.63Z"/><path class="cls-6" d="M1083.8,1655a14.62,14.62,0,0,1,14.63-14.63h128.73A14.63,14.63,0,0,1,1241.8,1655h0a14.63,14.63,0,0,1-14.64,14.64H1098.43A14.63,14.63,0,0,1,1083.8,1655Z"/><path class="cls-6" d="M990.66,1655a14.62,14.62,0,0,1,14.63-14.63h31.93a14.64,14.64,0,0,1,14.65,14.63h0a14.65,14.65,0,0,1-14.65,14.64h-31.93A14.63,14.63,0,0,1,990.66,1655Z"/><path class="cls-6" d="M1275.32,1655a14.63,14.63,0,0,1,14.64-14.63h31.94a14.64,14.64,0,0,1,14.63,14.63h0a14.64,14.64,0,0,1-14.63,14.64H1290a14.63,14.63,0,0,1-14.64-14.64Z"/><path class="cls-6" d="M294.75,278.24a14.63,14.63,0,0,1-14.64,14.64H248.17a14.63,14.63,0,0,1-14.63-14.64h0a14.63,14.63,0,0,1,14.63-14.63h31.94a14.63,14.63,0,0,1,14.64,14.63Z"/><path class="cls-6" d="M457.58,278.24A14.63,14.63,0,0,1,443,292.88h-92.3A14.63,14.63,0,0,1,336,278.24h0a14.63,14.63,0,0,1,14.64-14.63H443a14.62,14.62,0,0,1,14.63,14.63Z"/><path class="cls-6" d="M1763.79,321.37a16.88,16.88,0,1,1-16.87-16.88A16.87,16.87,0,0,1,1763.79,321.37Z"/><path class="cls-6" d="M87.66,507.52a16.88,16.88,0,1,1-16.87-16.88A16.87,16.87,0,0,1,87.66,507.52Z"/><path class="cls-6" d="M654.52,415.23a16.88,16.88,0,1,1-16.88-16.87A16.89,16.89,0,0,1,654.52,415.23Z"/><path class="cls-6" d="M826.57,16.88A16.88,16.88,0,1,1,809.7,0,16.87,16.87,0,0,1,826.57,16.88Z"/><path class="cls-6" d="M1926.47,1339.74a16.88,16.88,0,1,1-16.88-16.88A16.88,16.88,0,0,1,1926.47,1339.74Z"/></g></g></svg>