<svg xmlns="http://www.w3.org/2000/svg" xmlns:xlink="http://www.w3.org/1999/xlink" viewBox="0 0 2862.59 2800"><defs><style>.cls-1,.cls-16{fill:#f7801f;}.cls-1{opacity:0.3;}.cls-2{fill:url(#Degradado_sin_nombre_2);}.cls-3{fill:url(#linear-gradient);}.cls-4{fill:url(#linear-gradient-2);}.cls-5{fill:url(#linear-gradient-3);}.cls-6{fill:url(#Degradado_sin_nombre_2-2);}.cls-7{fill:url(#linear-gradient-4);}.cls-8{fill:url(#linear-gradient-5);}.cls-11,.cls-12,.cls-15,.cls-9{fill:#fff;}.cls-10{fill:url(#linear-gradient-6);}.cls-11{opacity:0.21;}.cls-12{opacity:0.69;}.cls-13{fill:url(#linear-gradient-7);}.cls-14{fill:url(#Degradado_sin_nombre_2-3);}.cls-15{fill-rule:evenodd;}.cls-17{fill:url(#linear-gradient-8);}.cls-18{fill:url(#linear-gradient-9);}.cls-19{fill:url(#linear-gradient-10);}.cls-20{fill:#ffb419;}.cls-21{fill:url(#linear-gradient-11);}.cls-22{fill:url(#linear-gradient-12);}.cls-23{fill:url(#linear-gradient-13);}.cls-24{fill:url(#linear-gradient-14);}.cls-25{fill:url(#linear-gradient-15);}.cls-26{fill:url(#linear-gradient-16);}.cls-27{fill:url(#linear-gradient-17);}.cls-28{fill:url(#linear-gradient-18);}.cls-29{fill:url(#linear-gradient-19);}.cls-30{fill:url(#linear-gradient-20);}.cls-31{fill:url(#linear-gradient-21);}.cls-32{fill:url(#linear-gradient-22);}.cls-33{fill:url(#linear-gradient-23);}.cls-34{fill:url(#linear-gradient-24);}.cls-35{fill:url(#linear-gradient-25);}.cls-36{fill:url(#linear-gradient-26);}.cls-37{fill:#e78456;}</style><linearGradient id="Degradado_sin_nombre_2" x1="2352.6" y1="1468.97" x2="1606.99" y2="799.45" gradientUnits="userSpaceOnUse"><stop offset="0" stop-color="#f7801f"/><stop offset="1" stop-color="#6b4825"/></linearGradient><linearGradient id="linear-gradient" x1="1700.65" y1="648.82" x2="2063.46" y2="1725.02" gradientUnits="userSpaceOnUse"><stop offset="0" stop-color="#26264f"/><stop offset="1" stop-color="#444b8c"/></linearGradient><linearGradient id="linear-gradient-2" x1="1744.04" y1="588.97" x2="2176.41" y2="1871.51" gradientUnits="userSpaceOnUse"><stop offset="0" stop-color="#444b8c"/><stop offset="1" stop-color="#26264f"/></linearGradient><linearGradient id="linear-gradient-3" x1="1767.24" y1="648.82" x2="2130.06" y2="1725.02" xlink:href="#linear-gradient"/><linearGradient id="Degradado_sin_nombre_2-2" x1="1647.1" y1="380.27" x2="2322.21" y2="2382.84" xlink:href="#Degradado_sin_nombre_2"/><linearGradient id="linear-gradient-4" x1="-1377.27" y1="2300.87" x2="-807.67" y2="592.05" gradientTransform="matrix(-1, 0, 0, 1, 308.37, 0)" gradientUnits="userSpaceOnUse"><stop offset="0" stop-color="#2b3582"/><stop offset="1" stop-color="#150e42"/></linearGradient><linearGradient id="linear-gradient-5" x1="263.19" y1="2608.66" x2="3736.88" y2="-247.56" gradientUnits="userSpaceOnUse"><stop offset="0" stop-color="#53d8ff"/><stop offset="1" stop-color="#3840f7"/></linearGradient><linearGradient id="linear-gradient-6" x1="1442.17" y1="2496.96" x2="1390.19" y2="1041.66" gradientTransform="translate(2881.81 4923.17) rotate(-180)" xlink:href="#linear-gradient-4"/><linearGradient id="linear-gradient-7" x1="634.7" y1="2125.06" x2="1183.17" y2="1352.36" gradientUnits="userSpaceOnUse"><stop offset="0" stop-color="#a737d5"/><stop offset="1" stop-color="#ef497a"/></linearGradient><linearGradient id="Degradado_sin_nombre_2-3" x1="236.94" y1="2376.99" x2="2601.49" y2="95.23" xlink:href="#Degradado_sin_nombre_2"/><linearGradient id="linear-gradient-8" x1="2041.5" y1="2478.69" x2="2489.94" y2="1323.09" xlink:href="#linear-gradient-7"/><linearGradient id="linear-gradient-9" x1="2078.42" y1="1965.6" x2="2526.86" y2="810" xlink:href="#linear-gradient-7"/><linearGradient id="linear-gradient-10" x1="2020.97" y1="1688.86" x2="2469.41" y2="533.26" xlink:href="#linear-gradient-7"/><linearGradient id="linear-gradient-11" x1="1146.04" y1="2319.47" x2="1264.2" y2="2442.89" gradientTransform="translate(-105.31)" xlink:href="#linear-gradient-4"/><linearGradient id="linear-gradient-12" x1="963.66" y1="2197.05" x2="1086.69" y2="1733.62" gradientTransform="translate(-105.31)" xlink:href="#linear-gradient-4"/><linearGradient id="linear-gradient-13" x1="1302.79" y1="2629.25" x2="1526.31" y2="2793.3" gradientTransform="translate(-105.31)" xlink:href="#linear-gradient-4"/><linearGradient id="linear-gradient-14" x1="1409.6" y1="2542" x2="939.33" y2="2157.86" gradientTransform="translate(-105.31)" gradientUnits="userSpaceOnUse"><stop offset="0" stop-color="#fdf53f"/><stop offset="0.66" stop-color="#e57a58"/><stop offset="1" stop-color="#d93c65"/></linearGradient><linearGradient id="linear-gradient-15" x1="1537.16" y1="2817.44" x2="1066.89" y2="2433.3" xlink:href="#linear-gradient-14"/><linearGradient id="linear-gradient-16" x1="1306" y1="2318.1" x2="838.47" y2="2494.45" gradientTransform="translate(-105.31)" xlink:href="#linear-gradient-4"/><linearGradient id="linear-gradient-17" x1="941.68" y1="2022.97" x2="789.94" y2="2203.42" gradientTransform="translate(-105.31)" gradientUnits="userSpaceOnUse"><stop offset="0" stop-color="#f9b776"/><stop offset="1" stop-color="#f47960"/></linearGradient><linearGradient id="linear-gradient-18" x1="514.94" y1="1688.59" x2="758.06" y2="2541.55" xlink:href="#linear-gradient-14"/><linearGradient id="linear-gradient-19" x1="764.74" y1="2187.16" x2="1068.05" y2="1772.21" xlink:href="#linear-gradient-17"/><linearGradient id="linear-gradient-20" x1="579.2" y1="1843.29" x2="590.37" y2="1742.74" xlink:href="#linear-gradient-17"/><linearGradient id="linear-gradient-21" x1="823.01" y1="-816.91" x2="773.77" y2="-979.32" gradientTransform="translate(439.82 2858.45) rotate(-39.11)" xlink:href="#linear-gradient-17"/><linearGradient id="linear-gradient-22" x1="778.58" y1="-1115.12" x2="824.36" y2="-854" gradientTransform="translate(439.82 2858.45) rotate(-39.11)" xlink:href="#linear-gradient-4"/><linearGradient id="linear-gradient-23" x1="772.01" y1="-801.44" x2="722.77" y2="-963.85" gradientTransform="translate(439.82 2858.45) rotate(-39.11)" xlink:href="#linear-gradient-17"/><linearGradient id="linear-gradient-24" x1="841.6" y1="2277.38" x2="1131.36" y2="1928.98" xlink:href="#linear-gradient-5"/><linearGradient id="linear-gradient-25" x1="1183.79" y1="1995.4" x2="1043.32" y2="2137.91" gradientTransform="translate(-105.31)" gradientUnits="userSpaceOnUse"><stop offset="0" stop-color="#fdf53f"/><stop offset="1" stop-color="#d93c65"/></linearGradient><linearGradient id="linear-gradient-26" x1="753.48" y1="2342.63" x2="881.12" y2="1866.6" xlink:href="#linear-gradient-5"/></defs><title>stream</title><g id="Capa_2" data-name="Capa 2"><g id="Illustration"><path class="cls-1" d="M2479.24,2408.08c-73.35,75.6-139,120.05-189.23,153.6-490.07,327.23-1050.28,232.91-1223.48,200.68-279.44-52-515.33-88.7-718-271.81C-112,2074.49-89.59,1206.55,262.31,668.89c41.72-63.75,393.08-584.58,954.5-658,13.74-1.79,24-2.81,33-3.76,86.85-9.2,625.05-57.73,1063.89,309.93,62.82,52.63,163.91,147.56,257.66,292.34C2914.09,1138.83,2915.17,1958.74,2479.24,2408.08Z"/><path class="cls-2" d="M1813.19,249.93c-404.34,0-743.62,329.64-743.62,736.27s339.28,713.5,743.62,686.34C2202.66,1646.39,2508,1317.86,2508,937.9S2202.66,249.93,1813.19,249.93Zm0,87.1c118.85-.49,214.23,94.08,214.23,211.22S1932,762.68,1813.19,765.57C1693,768.5,1594.55,674,1594.55,554.41S1693,337.52,1813.19,337Zm51,622.49c0,27.9-22.81,51.33-51,52.35S1761.93,991,1761.93,963s23-51.47,51.26-52.36S1864.21,931.63,1864.21,959.52ZM1390.91,1194c-125.05,5.47-227.49-88.94-227.49-210.91s102.44-223.24,227.49-226.18c123.63-2.9,222.81,91.61,222.81,211.06S1514.54,1188.56,1390.91,1194Zm422.28,391.48c-120.2,7.58-218.64-83.13-218.64-202.7S1693,1162,1813.19,1156.9c118.85-5.09,214.23,85.79,214.23,202.93S1932,1578,1813.19,1585.44Zm406.09-427.67c-115.62,5-210.3-85.86-210.3-203.11s94.68-214.51,210.3-217.23c114.35-2.68,206.13,88.33,206.13,203.25S2333.63,1152.77,2219.28,1157.77Z"/><path class="cls-3" d="M2192.53,948.5c0,207.43-168.14,384.27-379.34,395.18-215.49,11.13-393.43-154.09-393.43-369.23s177.94-392.31,393.43-395.66C2024.39,575.52,2192.53,741.06,2192.53,948.5Z"/><path class="cls-4" d="M2330.28,946.11c0,246.34-199.3,457-450.49,470.85-257.29,14.18-470.5-182.64-470.5-439.93s213.21-468.42,470.5-471.52C2131,502.48,2330.28,699.77,2330.28,946.11Z"/><path class="cls-5" d="M2259.13,948.5c0,207.43-168.14,384.27-379.34,395.18-215.5,11.13-393.43-154.09-393.43-369.23s177.93-392.31,393.43-395.66C2091,575.52,2259.13,741.06,2259.13,948.5Z"/><path class="cls-6" d="M1868,249.93c-404.33,0-743.62,329.64-743.62,736.27s339.29,713.5,743.62,686.34c389.47-26.15,694.84-354.68,694.84-734.64S2257.42,249.93,1868,249.93Zm0,87.1c118.85-.49,214.23,94.08,214.23,211.22S1986.8,762.68,1868,765.57c-120.2,2.93-218.64-91.6-218.64-211.16S1747.75,337.52,1868,337Zm51,622.49c0,27.9-22.81,51.33-51,52.35S1816.69,991,1816.69,963s23-51.47,51.26-52.36S1919,931.63,1919,959.52ZM1445.68,1194c-125.06,5.47-227.5-88.94-227.5-210.91s102.44-223.24,227.5-226.18c123.62-2.9,222.8,91.61,222.8,211.06S1569.3,1188.56,1445.68,1194ZM1868,1585.44c-120.2,7.58-218.64-83.13-218.64-202.7S1747.75,1162,1868,1156.9c118.85-5.09,214.23,85.79,214.23,202.93S1986.8,1578,1868,1585.44ZM2274,1157.77c-115.62,5-210.3-85.86-210.3-203.11s94.68-214.51,210.3-217.23c114.35-2.68,206.13,88.33,206.13,203.25S2388.39,1152.77,2274,1157.77Z"/><path class="cls-7" d="M214.87,2362.86a44.71,44.71,0,0,0,44.6,44.56H2671.23a44.71,44.71,0,0,0,44.6-44.56l20.07-1386c0-24.51-28.87-72.35-81.78-68.75l-2357-61a112.38,112.38,0,0,0-115.32,115Z"/><path class="cls-8" d="M258.9,2320.12a42.32,42.32,0,0,0,42.2,42.19h2312a42.32,42.32,0,0,0,42.2-42.19l18.93-1258.2C2672,986.2,2605.59,959,2565.35,960.6L306.34,900a79,79,0,0,0-81,80.83Z"/><path class="cls-9" d="M2630.28,1722.38h-.09a6.17,6.17,0,0,1-6.09-6.27l1.5-102a6.18,6.18,0,0,1,6.17-6.09h.1a6.18,6.18,0,0,1,6.09,6.27l-1.5,102A6.18,6.18,0,0,1,2630.28,1722.38Z"/><path class="cls-9" d="M2634,1472.34h-.1a6.19,6.19,0,0,1-6.09-6.28l5.74-390.81c-.11-23.21-7.15-41.74-21-55-25.74-24.66-66.61-23.4-68.33-23.32l-722-19.37a6.17,6.17,0,0,1-6-6.34,5.92,5.92,0,0,1,6.35-6l721.6,19.36c4.49-.27,48-1,77,26.75,16.3,15.62,24.63,37.14,24.76,64l-5.74,390.93A6.18,6.18,0,0,1,2634,1472.34Z"/><rect class="cls-10" x="19.22" y="2400.7" width="2843.37" height="121.78" rx="5.65" transform="translate(2881.81 4923.17) rotate(180)"/><path class="cls-11" d="M2613.07,2362.31H291.15V1076.49A113.53,113.53,0,0,1,407.62,963l2096.1,54.46a111.8,111.8,0,0,1,108.89,111.71Z"/><path class="cls-12" d="M365.23,2072.83l1.54,9.67c1.42,8.85,13.3,15.59,27.48,15.59H1886.71c15.25,0,27.61-7.75,27.61-17.32h0c0-9.5-12.19-17.23-27.33-17.33l-1494-9.66C376.54,2053.67,363.59,2062.56,365.23,2072.83Z"/><path class="cls-12" d="M342.18,2170.33l1,9.67a17.33,17.33,0,0,0,17.24,15.6h936.45a17.33,17.33,0,0,0,17.33-17.33h0A17.32,17.32,0,0,0,1297,2161l-937.42-9.67A17.33,17.33,0,0,0,342.18,2170.33Z"/><path class="cls-12" d="M342.18,2263.59l1,9.67a17.33,17.33,0,0,0,17.24,15.6h936.45a17.33,17.33,0,0,0,17.33-17.33h0A17.33,17.33,0,0,0,1297,2254.2l-937.42-9.66A17.33,17.33,0,0,0,342.18,2263.59Z"/><path class="cls-13" d="M964.48,2091.63c-1.1-14.38-2.44-29-3.73-43.58l-578.15-9.52c-10.33-.17-18.45,14-17.42,30.45l1,15.45c.88,14.15,8.34,24.93,17.24,24.93h582.7C965.48,2103.15,964.9,2097.18,964.48,2091.63Z"/><circle class="cls-9" cx="969.11" cy="2078.03" r="31.33"/><path class="cls-14" d="M1864.11,1991.46H397a54.86,54.86,0,0,1-54.86-54.86V1092.78A54.85,54.85,0,0,1,398,1037.93l1467.15,28.27a54.87,54.87,0,0,1,53.81,54.85V1936.6A54.86,54.86,0,0,1,1864.11,1991.46Z"/><path class="cls-15" d="M1099.27,1641.26V1430a29.12,29.12,0,0,1,44-25l178,105.63a29.12,29.12,0,0,1,0,50.09l-178,105.64A29.12,29.12,0,0,1,1099.27,1641.26Z"/><path class="cls-16" d="M2500.28,1369.84H2047a17,17,0,0,1-17-16.95V1092.16a16.94,16.94,0,0,1,17.28-16.94l453.33,8.73a17,17,0,0,1,16.62,17v252A17,17,0,0,1,2500.28,1369.84Z"/><path class="cls-15" d="M2264,1261.64v-65.28a9,9,0,0,1,13.59-7.74l55,32.64a9,9,0,0,1,0,15.48l-55,32.63A9,9,0,0,1,2264,1261.64Z"/><path class="cls-16" d="M2504.2,1787.49H2050.87a17,17,0,0,1-16.95-17V1509.82a17,17,0,0,1,17.28-17l453.33,8.74a16.94,16.94,0,0,1,16.62,16.94v252A17,17,0,0,1,2504.2,1787.49Z"/><path class="cls-15" d="M2267.88,1679.29V1614a9,9,0,0,1,13.59-7.74l55,32.64a9,9,0,0,1,0,15.48l-55,32.64A9,9,0,0,1,2267.88,1679.29Z"/><path class="cls-12" d="M2041.07,2237.24l.48,3c.44,2.74,4.12,4.82,8.52,4.82h462.52c4.73,0,8.56-2.39,8.56-5.35h0c0-2.94-3.78-5.32-8.47-5.35l-463-3C2044.58,2231.32,2040.56,2234.06,2041.07,2237.24Z"/><path class="cls-12" d="M2034,2270.4l.3,4c.27,3.66,2.58,6.44,5.33,6.44h289.34c3,0,5.36-3.2,5.36-7.16h0c0-3.92-2.37-7.12-5.3-7.16l-289.65-4C2036.14,2262.48,2033.63,2266.16,2034,2270.4Z"/><path class="cls-17" d="M2226.23,2243.05c-.34-4.45-.76-9-1.15-13.47l-178.64-2.94c-3.19-.06-5.7,4.33-5.38,9.41l.3,4.77c.27,4.37,2.57,7.7,5.32,7.7h180C2226.54,2246.6,2226.36,2244.76,2226.23,2243.05Z"/><circle class="cls-9" cx="2227.66" cy="2238.84" r="9.68" transform="translate(-454.79 571.7) rotate(-13.28)"/><path class="cls-16" d="M2504.2,2205.19H2050.87a17,17,0,0,1-16.95-17V1927.52a17,17,0,0,1,17.28-17l453.33,8.74a16.94,16.94,0,0,1,16.62,16.94v252A17,17,0,0,1,2504.2,2205.19Z"/><path class="cls-15" d="M2267.88,2097v-65.28a9,9,0,0,1,13.59-7.74l55,32.64a9,9,0,0,1,0,15.48l-55,32.64A9,9,0,0,1,2267.88,2097Z"/><path class="cls-12" d="M2045.59,1826.2l.45,2.76c.4,2.52,3.8,4.45,7.86,4.45H2481c4.36,0,7.9-2.22,7.9-5h0c0-2.71-3.49-4.91-7.82-4.94l-427.56-2.76C2048.83,1820.73,2045.12,1823.27,2045.59,1826.2Z"/><path class="cls-12" d="M2039,1856.82l.27,3.69c.26,3.38,2.38,6,4.92,6h267.2c2.73,0,4.94-3,4.94-6.62h0c0-3.62-2.18-6.57-4.89-6.61L2044,1849.55C2041,1849.51,2038.72,1852.9,2039,1856.82Z"/><path class="cls-18" d="M2216.58,1831.56c-.32-4.1-.7-8.26-1.07-12.43l-165-2.72c-3-.05-5.26,4-5,8.69l.28,4.41c.25,4,2.38,7.11,4.91,7.11H2217C2216.86,1834.85,2216.7,1833.15,2216.58,1831.56Z"/><circle class="cls-9" cx="2217.9" cy="1827.68" r="8.94" transform="translate(-642.76 2103.61) rotate(-45)"/><path class="cls-12" d="M2040.77,1413.86l.44,2.76c.4,2.52,3.8,4.45,7.86,4.45h427.12c4.37,0,7.91-2.22,7.91-5h0c0-2.71-3.49-4.91-7.83-4.94l-427.56-2.76C2044,1408.39,2040.3,1410.93,2040.77,1413.86Z"/><path class="cls-12" d="M2034.19,1444.48l.28,3.69c.25,3.38,2.38,6,4.92,6h267.19c2.73,0,5-3,5-6.62h0c0-3.62-2.19-6.57-4.9-6.61l-267.47-3.69C2036.22,1437.17,2033.9,1440.56,2034.19,1444.48Z"/><path class="cls-19" d="M2211.75,1419.22c-.31-4.1-.7-8.26-1.06-12.43l-165-2.72c-2.94,0-5.26,4-5,8.69l.28,4.41c.25,4,2.38,7.11,4.92,7.11h166.26C2212,1422.51,2211.87,1420.81,2211.75,1419.22Z"/><circle class="cls-9" cx="2213.07" cy="1415.34" r="8.94"/><path class="cls-20" d="M133.25,1755.09S12.48,1822,2.49,1935.22s-.84,583.19,241.34,698.86,562.73,89,685.43,76.36,190.74-96,205.93-153.45,39.75-271.3-89.33-340.29S781.21,2042,645.74,1939.09,278.1,1668.16,133.25,1755.09Z"/><path class="cls-21" d="M1007.79,2255.73s-32.59,1.73-36.59,68.79c0,0,75.59,67.75,177.68,83.88,7.67,1.21-10.71-52.32-13.48-59.57C1122.26,2314.32,1080.85,2292.1,1007.79,2255.73Z"/><path class="cls-22" d="M640.7,2176.88h68.79s211.11-233.15,349.58-256.68c0,0,96.39,123-5.13,352.92-8.17,18.5-31,26.71-48.05,15.83a27.55,27.55,0,0,1-11-13.08l8.17-196.29S823,2237.08,791.69,2267.48,601.28,2279.35,640.7,2176.88Z"/><path class="cls-23" d="M1305.7,2666.41c-28.82-25.25-74.75-53.6-141-61.72l-22.42,13.71s14.3,21.09,40.42,43.37c24,13.94,61.07,32.83,91.8,36.92C1304.33,2702.67,1308.74,2684.62,1305.7,2666.41Z"/><path class="cls-24" d="M1135.4,2348.83c-17.75,5.74-25.56,30.9-70.62,14.27a399.09,399.09,0,0,1-92.68-48.83c-.37,3.25-.68,6.64-.9,10.25,0,0,79.7,75.8,181.79,91.93a10.16,10.16,0,0,0,11-13.69A256.54,256.54,0,0,0,1135.4,2348.83Z"/><path class="cls-25" d="M1327.42,2688a239.61,239.61,0,0,0-21.72-21.57c3,18.21-1.37,36.26-31.25,32.28-30.73-4.09-67.8-23-91.8-36.92,30.08,25.66,75.86,52.9,133.64,51.3C1329.13,2712.71,1335.9,2697.62,1327.42,2688Z"/><path class="cls-26" d="M643.22,2226.65l322.11,3.49s183.95,152.19,217.32,384.26c0,0,5.53,17.07-27.72,20,0,0-111.21-72.64-183.73-201.06-88.91-157.46-265.07-86.58-265.07-86.58-57.88-41.73-139.66-50.23-201.28-64.13Z"/><path class="cls-27" d="M650.83,1967.18S685.5,2141,855.4,2209.71l60.44-7.13,14.26,22.74-141.76,4.52s-121.18-48-185.38-178.78C600.83,2046.74,565.48,1973.74,650.83,1967.18Z"/><path class="cls-28" d="M669.41,2223.81S630,2116.63,621.5,2012.47c0,0,28.85-24.79,46.88-35.48a13,13,0,0,0,5.09-16.91c-13.25-27.46-93.42-135.29-99.43-136.79-32.64-8.15-166.51-71.8-260.79,57.16-40.46,55.35,8,225.73,191.6,402.17l37.87,7.24Z"/><path class="cls-29" d="M517.47,2036S627,2165.68,767.09,2184.64c0,0,36.2-33,63.11-21.22S894,2227.21,894,2227.21H714.18s-170-6-255-109.11C466,2082,486.47,2060.47,517.47,2036Z"/><path class="cls-30" d="M453.55,1732.3l-24,80A8.78,8.78,0,0,0,433,1822c11.54,7.91,41.7,23.63,83.08,8.35a13,13,0,0,0,8.38-11.19l5.69-69.65Z"/><path class="cls-31" d="M554.55,1598.94s43.13,71.75,34.5,111.61-68.87,64.09-124.53,28.82l-35-109.23Z"/><path class="cls-32" d="M469.48,1686.75a4.09,4.09,0,0,0,2.07-5.91c-3.93-6.67-11.26-20.22-13.25-31.89,0,0-9.22-6.52,24.82-13s84.83-16.69,96.71-44.87c11.58-27.46-12.21-99-57.93-45a4.1,4.1,0,0,1-6.49-.26c-6.65-9.53-24.36-29.49-50.7-19.1-24.65,9.72-28.19,27.29-28.27,36.23a4.08,4.08,0,0,1-5,4c-12.11-2.9-41.32-6.25-56.38,23.18-12.41,24.23-5.74,38.59.61,45.75a4.1,4.1,0,0,1-2.06,6.71c-8.14,2.08-18.82,8.41-18.65,27.26.23,26.06,29.4,25.11,37.73,24.31a4.09,4.09,0,0,1,3.58,1.45c6.73,8.18,37.16,43,71.57,48.61a4.14,4.14,0,0,0,4.59-5.26l-13-44.21a4.12,4.12,0,0,1,2.47-5Z"/><path class="cls-33" d="M475.22,1693.21s-36.42-27.55-40.18-5.94,32.42,33,50.93,25.78Z"/><path class="cls-34" d="M885,2237.28,965.73,1968a27.54,27.54,0,0,1,24.49-19.57l109-7.46a15.46,15.46,0,0,1,15.64,20.55l-90.27,257.17a22.65,22.65,0,0,1-19.08,15l-107.36,11.92Z"/><path class="cls-35" d="M1033.9,2059.26c-6,12.17-16.44,19.29-23.25,15.92s-7.45-16-1.42-28.15,16.44-19.3,23.25-15.92S1039.93,2047.09,1033.9,2059.26Z"/><path class="cls-36" d="M898.18,2245.63h-.53l-228.76-11.57a10.25,10.25,0,1,1,1-20.47l228.76,11.56a10.25,10.25,0,0,1-.51,20.49Z"/><path class="cls-37" d="M621.5,2015h0a2.53,2.53,0,0,1-2.52-2.54c.16-47.7-18.25-111-18.44-111.66a2.53,2.53,0,0,1,4.85-1.43c.19.65,18.81,64.69,18.65,113.11A2.52,2.52,0,0,1,621.5,2015Z"/><path class="cls-37" d="M517.47,2038.49a2.53,2.53,0,0,1-2-1c-.5-.64-50.6-64.32-67.84-108a2.53,2.53,0,0,1,4.71-1.86c17,43,66.6,106.1,67.1,106.73a2.53,2.53,0,0,1-2,4.1Z"/><path class="cls-37" d="M447.31,2135.91l-1.88-.81C372.81,2104,328,2017.36,327.54,2016.49a2.53,2.53,0,0,1,4.5-2.3c.44.85,43.69,84.4,113.51,115.44l7.12-10.06a2.53,2.53,0,0,1,4.13,2.92Z"/></g></g></svg>